<?xml version="1.0" encoding="utf-8"?>
<!DOCTYPE svg PUBLIC "-//W3C//DTD SVG 1.1//EN" "http://www.w3.org/Graphics/SVG/1.1/DTD/svg11.dtd">
<svg version="1.1" xmlns="http://www.w3.org/2000/svg" xmlns:xlink="http://www.w3.org/1999/xlink" x="0px" y="0px" width="500px"
	 height="500px" viewBox="0 0 500 500" enable-background="new 0 0 500 500" xml:space="preserve">
  <rect fill="#7A1C22" width="500" height="500" />
  <g>
    <circle fill="#D9C590" cx="152.872" cy="305.17" r="26.189" />
    <circle fill="#D9C590" cx="347.125" cy="305.17" r="26.189" />
    <path fill="#D9C590" d="M 69.933 456.401 C 65.625 456.401 62.089 452.955 62 448.63 C 61.91 444.246 65.389 440.623 69.771 440.532 L 70.496 440.513 C 74.849 440.379 78.533 443.831 78.662 448.212 C 78.789 452.596 75.342 456.25 70.96 456.38 L 70.097 456.401 C 70.043 456.401 69.989 456.401 69.933 456.401 Z" />
    <path fill="#D9C590" d="M 271.847 333.754 C 267.752 324.771 253.298 326.258 250 336.607 C 246.7 326.258 232.244 324.771 228.15 333.754 C 221.301 348.783 213.998 345.792 213.998 345.792 C 239.059 356.453 247.748 351.093 250 345.244 C 252.253 351.093 260.941 356.453 285.997 345.792 C 285.999 345.792 278.696 348.783 271.847 333.754 Z" />
    <path fill="#D9C590" d="M 428.683 259.778 C 427.281 259.237 425.792 258.963 424.258 258.963 C 424.173 258.963 424.086 258.981 424.001 258.984 C 422.357 198.33 388.212 179.988 341.054 174.686 L 341.054 143.381 L 364.173 116.394 L 364.173 73.317 C 369.984 70.404 373.984 64.405 373.984 57.461 C 373.984 47.661 366.039 39.713 356.236 39.713 C 346.432 39.713 338.487 47.661 338.487 57.461 C 338.487 64.408 342.487 70.406 348.298 73.317 L 348.298 110.525 L 325.182 137.508 L 325.182 173.38 C 317.301 172.934 309.146 172.737 300.796 172.667 L 300.796 114.19 C 306.61 111.274 310.61 105.276 310.61 98.334 C 310.61 88.532 302.664 80.586 292.859 80.586 C 283.056 80.586 275.111 88.532 275.111 98.334 C 275.111 105.278 279.111 111.276 284.924 114.19 L 284.924 172.667 C 280.816 172.69 276.668 172.718 272.453 172.755 C 257.764 172.875 242.231 172.875 227.552 172.755 C 220.462 172.698 213.512 172.637 206.734 172.637 C 136.511 172.637 78.162 179.237 76 258.983 C 75.915 258.979 75.828 258.961 75.743 258.961 C 74.209 258.961 72.72 259.234 71.316 259.776 C 56.768 265.384 49.893 303.502 62.532 336.306 C 74.7 367.877 102.014 388.022 115.471 388.022 C 117.243 388.022 118.901 387.73 120.4 387.152 C 122.105 386.495 123.527 385.524 124.723 384.31 C 141.79 402.013 162.554 416.122 185.768 425.373 C 186.07 440.637 191.938 456.226 205.17 459.488 C 207.327 460.019 209.611 460.288 211.961 460.288 C 211.961 460.288 211.962 460.288 211.962 460.288 C 220.13 460.288 228.423 457.036 235.547 453.026 C 239.528 455.24 244.102 456.508 248.971 456.508 C 254.258 456.508 259.183 454.996 263.393 452.419 C 270.748 456.701 279.466 460.286 288.042 460.286 C 290.389 460.286 292.676 460.017 294.833 459.486 C 308.063 456.224 313.933 440.641 314.236 425.378 C 337.452 416.128 358.215 402.017 375.279 384.31 C 376.474 385.522 377.896 386.495 379.601 387.152 C 381.1 387.73 382.757 388.022 384.528 388.022 C 384.53 388.022 384.53 388.022 384.532 388.022 C 397.99 388.022 425.303 367.877 437.469 336.304 C 450.108 303.505 443.233 265.385 428.683 259.778 Z M 113.741 371.842 C 106.298 369.59 86.807 355.16 77.34 330.601 C 67.988 306.323 72.41 283.135 76.394 276.014 C 78.944 312.063 92.503 345.113 113.746 371.806 C 113.746 371.817 113.744 371.83 113.741 371.842 Z M 110.354 305.17 C 110.354 281.726 129.429 262.656 152.872 262.656 C 176.316 262.656 195.39 281.726 195.39 305.17 C 195.39 328.615 176.316 347.688 152.872 347.688 C 129.429 347.688 110.354 328.615 110.354 305.17 Z M 224.132 441.046 C 219.976 443.042 215.741 444.418 211.961 444.418 C 210.89 444.418 209.882 444.302 208.964 444.076 C 205.074 443.119 201.118 433.814 201.657 421.995 C 202.134 411.539 205.861 405.23 208.256 404.867 C 208.656 404.808 209.087 404.777 209.538 404.777 C 214.36 404.777 220.653 407.955 226.767 412.202 C 223.305 416.832 221.229 422.554 221.229 428.764 C 221.229 433.179 222.29 437.338 224.132 441.046 Z M 249.001 441.02 C 242.229 441.02 236.739 435.529 236.739 428.756 C 236.739 421.988 242.229 416.496 249.001 416.496 C 255.773 416.496 261.262 421.988 261.262 428.756 C 261.262 435.53 255.773 441.02 249.001 441.02 Z M 291.037 444.076 C 290.119 444.302 289.111 444.418 288.042 444.418 C 283.728 444.418 278.868 442.67 274.204 440.243 C 275.802 436.739 276.72 432.862 276.72 428.765 C 276.72 422.979 274.933 417.604 271.892 413.153 C 278.421 408.439 285.288 404.779 290.465 404.779 C 290.917 404.779 291.349 404.81 291.749 404.869 C 294.142 405.231 297.871 411.541 298.347 421.997 C 298.882 433.814 294.924 443.119 291.037 444.076 Z M 312.36 408.971 C 309.316 397.772 302.815 390.493 294.122 389.175 C 292.939 388.996 291.708 388.904 290.463 388.904 C 279.653 388.904 267.965 395.964 259.048 402.942 C 255.919 401.72 252.53 401.021 248.971 401.021 C 245.939 401.021 243.026 401.529 240.292 402.432 C 231.465 395.624 220.084 388.906 209.538 388.906 C 208.293 388.906 207.062 388.997 205.879 389.177 C 197.188 390.495 190.685 397.774 187.64 408.972 C 176.595 404.215 166.2 398.239 156.618 391.207 C 156.749 390.779 156.88 390.357 157.005 389.929 C 158.235 385.721 155.823 381.313 151.616 380.082 C 149.084 379.341 146.489 379.939 144.549 381.438 C 135.184 373.049 126.839 363.551 119.684 353.172 C 127.023 358.262 135.574 361.709 144.816 362.99 L 144.818 363.149 C 144.868 367.497 148.413 370.991 152.751 370.991 C 152.782 370.991 152.815 370.991 152.846 370.991 C 157.207 370.94 160.701 367.376 160.684 363.021 C 189.197 359.19 211.264 334.715 211.264 305.17 C 211.264 272.974 185.068 246.782 152.872 246.782 C 123.747 246.782 99.538 268.217 95.184 296.139 C 92.982 285.642 91.801 274.769 91.801 263.624 C 91.801 199.356 127.257 188.513 206.732 188.513 C 213.469 188.513 220.373 188.569 227.419 188.627 C 242.184 188.75 257.807 188.75 272.579 188.627 C 279.628 188.571 286.533 188.513 293.266 188.513 C 372.742 188.513 408.197 199.356 408.197 263.624 C 408.198 328.717 368.664 384.72 312.36 408.971 Z M 422.659 330.601 C 413.191 355.164 393.698 369.591 386.257 371.842 C 386.257 371.83 386.255 371.816 386.254 371.802 C 407.493 345.111 421.058 312.068 423.609 276.02 C 427.591 283.146 432.008 306.327 422.659 330.601 Z" />
    <path fill="#D9C590" d="M 99.89 441.919 C 95.585 441.919 92.049 438.473 91.96 434.145 C 91.87 429.762 95.35 426.138 99.732 426.049 L 100.457 426.031 C 104.809 425.895 108.493 429.346 108.624 433.73 C 108.751 438.112 105.304 441.768 100.923 441.896 L 100.059 441.917 C 100.003 441.919 99.949 441.919 99.89 441.919 Z" />
    <path fill="#D9C590" d="M 128.264 422.079 C 123.957 422.079 120.421 418.631 120.333 414.305 C 120.244 409.922 123.724 406.297 128.105 406.207 L 128.83 406.189 C 133.181 406.054 136.866 409.507 136.996 413.89 C 137.124 418.27 133.675 421.928 129.294 422.055 L 128.43 422.077 C 128.376 422.077 128.32 422.079 128.264 422.079 Z" />
  </g>
</svg>